<svg width="16" height="17" viewBox="0 0 16 17" fill="none" xmlns="http://www.w3.org/2000/svg">
<g clip-path="url(#clip0_226_1151)">
<path d="M5.41735 9.53938C5.71337 10.6895 6.75744 11.5394 8 11.5394C9.24256 11.5394 10.2866 10.6895 10.5827 9.53938M7.34513 2.04872L2.82359 5.56547C2.52135 5.80055 2.37022 5.91809 2.26135 6.06529C2.16491 6.19568 2.09307 6.34258 2.04935 6.49876C2 6.67507 2 6.86652 2 7.24942V12.0727C2 12.8194 2 13.1928 2.14532 13.478C2.27316 13.7289 2.47713 13.9329 2.72801 14.0607C3.01323 14.206 3.3866 14.206 4.13333 14.206H11.8667C12.6134 14.206 12.9868 14.206 13.272 14.0607C13.5229 13.9329 13.7268 13.7289 13.8547 13.478C14 13.1928 14 12.8194 14 12.0727V7.24942C14 6.86652 14 6.67507 13.9506 6.49876C13.9069 6.34258 13.8351 6.19568 13.7386 6.06529C13.6298 5.91809 13.4787 5.80055 13.1764 5.56547L8.65487 2.04872C8.42065 1.86655 8.30354 1.77547 8.17423 1.74046C8.06013 1.70956 7.93987 1.70956 7.82577 1.74046C7.69646 1.77547 7.57935 1.86655 7.34513 2.04872Z" stroke="#717680" stroke-width="1.5" stroke-linecap="round" stroke-linejoin="round"/>
</g>
<defs>
<clipPath id="clip0_226_1151">
<rect width="16" height="16" fill="white" transform="translate(0 0.206055)"/>
</clipPath>
</defs>
</svg>
